<?xml version="1.0" encoding="utf-8"?>
<!-- Generator: Adobe Illustrator 23.0.5, SVG Export Plug-In . SVG Version: 6.00 Build 0)  -->
<svg version="1.1" id="Capa_1" xmlns="http://www.w3.org/2000/svg" xmlns:xlink="http://www.w3.org/1999/xlink" x="0px" y="0px"
	 viewBox="0 0 256 295" style="enable-background:new 0 0 256 295;" xml:space="preserve">
<style type="text/css">
	.st0{fill:#264DE4;}
	.st1{fill:#2965F1;}
	.st2{fill:#EBEBEB;}
	.st3{display:none;}
	.st4{fill:#FFFFFF;}
</style>
<g>
	<path class="st0" d="M127.8,294.1L23.7,265.2L0.4,4.8h255.1l-23.2,260.4L127.8,294.1L127.8,294.1z"/>
	<path class="st1" d="M212.4,248.5l19.9-222.5H128V272L212.4,248.5L212.4,248.5z"/>
	<path class="st2" d="M53.7,122.6l2.9,31.9H128v-31.9H53.7L53.7,122.6z"/>
	<path class="st2" d="M47.9,58l2.9,31.9H128V58H47.9L47.9,58z"/>
	<path class="st2" d="M128,205.6l-0.1,0L92.3,196L90,170.5H58l4.5,50.1l65.4,18.2l0.1,0V205.6L128,205.6z"/>
	<path class="st3" d="M60.5-66h38.7v16.2H76.7v16.2h22.5v16.2H60.5V-66L60.5-66z"/>
	<path class="st3" d="M106.9-66h38.7v14.1h-22.5v2.8h22.5v32.4h-38.7v-14.8h22.5v-2.8h-22.5V-66L106.9-66z"/>
	<path class="st3" d="M153.3-66H192v14.1h-22.5v2.8H192v32.4h-38.7v-14.8h22.5v-2.8h-22.5V-66L153.3-66z"/>
	<path class="st4" d="M202.1,122.6l5.8-64.6h-80v31.9h45l-2.9,32.7h-42.1v31.9h39.3l-3.7,41.4l-35.6,9.6v33.2l65.5-18.1l0.5-5.4
		l7.5-84.1L202.1,122.6L202.1,122.6z"/>
</g>
</svg>
