<?xml version="1.0" encoding="utf-8"?>
<!-- Generator: Adobe Illustrator 23.0.5, SVG Export Plug-In . SVG Version: 6.00 Build 0)  -->
<svg version="1.1" id="Capa_1" xmlns="http://www.w3.org/2000/svg" xmlns:xlink="http://www.w3.org/1999/xlink" x="0px" y="0px"
	 viewBox="0 0 256 294.5" style="enable-background:new 0 0 256 294.5;" xml:space="preserve">
<style type="text/css">
	.st0{fill:#E44D26;}
	.st1{fill:#F16529;}
	.st2{fill:#EBEBEB;}
	.st3{display:none;}
	.st4{fill:#FFFFFF;}
</style>
<g>
	<path class="st0" d="M255.6,4.2l-23.2,260.4l-104.5,29L23.7,264.6L0.4,4.2H255.6L255.6,4.2z"/>
	<path class="st1" d="M128,271.4l84.4-23.4l19.9-222.5H128V271.4L128,271.4z"/>
	<path class="st2" d="M82.8,89.4H128V57.5H47.9l0.8,8.6l7.8,88H128v-31.9H85.7L82.8,89.4L82.8,89.4z"/>
	<path class="st2" d="M90,170H58l4.5,50.1l65.4,18.2l0.1,0V205l-0.1,0l-35.6-9.6L90,170L90,170z"/>
	<path class="st3" d="M24.2-66.5h16.2v16h14.8v-16h16.2V-18H55.3v-16.3H40.4V-18H24.2L24.2-66.5L24.2-66.5L24.2-66.5z"/>
	<path class="st3" d="M92.8-50.4H78.5v-16.1h44.8v16.1h-14.3V-18H92.8L92.8-50.4L92.8-50.4L92.8-50.4z"/>
	<path class="st3" d="M130.5-66.5h16.9l10.4,17.1l10.4-17.1h16.9V-18H169V-42l-11.2,17.3h-0.3L146.3-42V-18h-15.9V-66.5L130.5-66.5z
		"/>
	<path class="st3" d="M193.2-66.5h16.2V-34h22.8V-18h-39.1V-66.5L193.2-66.5z"/>
	<path class="st4" d="M127.9,154h39.3l-3.7,41.4l-35.6,9.6v33.2l65.5-18.1l0.5-5.4l7.5-84.1l0.8-8.6h-74.2V154L127.9,154z"/>
	<path class="st4" d="M127.9,89.3L127.9,89.3l77.1,0.1l0.6-7.2l1.5-16.2l0.8-8.6h-80V89.3L127.9,89.3z"/>
</g>
</svg>
