<?xml version="1.0" encoding="utf-8"?>
<!-- Generator: Adobe Illustrator 23.0.5, SVG Export Plug-In . SVG Version: 6.00 Build 0)  -->
<svg version="1.1" id="Capa_1" xmlns="http://www.w3.org/2000/svg" xmlns:xlink="http://www.w3.org/1999/xlink" x="0px" y="0px"
	 viewBox="0 0 3161 570" style="enable-background:new 0 0 3161 570;" xml:space="preserve">
<style type="text/css">
	.st0{fill:#9908A5;}
	.st1{fill:#FFFFFF;}
</style>
<g>
	<g>
		<path class="st0" d="M9,347.8L396.9,86.6v9.6v-1l-84.3,56.4l0.5,0.5l83.8-52.5v8.2L327,154.1c0,0.3,0.2,0.5,0.5,0.5l69.4-43.4v8.7
			L341.5,157v0.5l55.4-33.7v8.2l-41,27.9v0.5l41-25.1v9.2l-26.5,18.3l0.5,0.5l26-15.9v9.6l-12,8.7c0,0.3,0.2,0.5,0.5,0.5l11.6-7.2
			v32.8l-238,155.6h-54.9v-0.5l-0.5,0.5l-15.9,0.5l19.3-14.9l-0.5-0.5l-21.7,15.4h-14l39-29.4h-0.5l-42.9,29.4H53.8l58.3-44.3
			l-63.6,44.3H36.9L115,289h-0.5l-82.9,58.3l0.5,0.5H9z M9,351.2l74.2,73.2c17.7,0,32.3,0,43.8,0s21.8,0,30.6,0c8.8,0,16.9,0,24.1,0
			c7.2,0,15.2,0,23.9,0s18.9,0,30.6,0c11.7,0,26.4,0,44.1,0c7.4,0,14.1,0.1,20.2,0.2c6.1,0.2,12,0.6,17.8,1.4
			c5.8,0.8,11.6,1.9,17.3,3.4c5.8,1.4,12.2,3.3,19.3,5.5c-8.7-15.4-18.2-28.4-28.4-39c-10.3-10.6-22.7-19.3-37.3-26
			c-14.6-6.7-32.4-11.6-53.5-14.7c-21-3-46.7-4.6-76.8-4.6L9,351.2z M399.8,351.6l78.5,72.8V164.2l-78.5-74.7V351.6z M559.2,351.6
			l-78.1,72.8V164.2l78.1-74.7V351.6z M951.9,347.8L563.6,86.6v9.2l0.5-0.5l83.8,56.4v0.5l-84.3-52.5v8.2l69.9,46.3v0.5l-69.9-42.9
			v8.2l55.9,37.1l-0.5,0.5l-55.4-33.7v8.2l41.4,27.9v0.5l-41.4-25.1v9.6l26.5,17.8v0.5l-26.5-15.9v9.6l12.5,8.7l-0.5,0.5l-12-7.2
			v32.8l238.5,155.6h70.3l-18.3-13.5c0-0.3,0.2-0.5,0.5-0.5l20.7,14.5h14l-37.6-28.4v-0.5l41.9,28.9h12.5l-57.3-43.4v-0.5l62.6,43.8
			H923L846.4,290v-0.5l82.9,58.3H951.9z M951.9,351.2l-74.2,73.2c-17.7,0-32.4,0-44.1,0c-11.7,0-21.9,0-30.6,0s-16.6,0-23.8,0
			c-7.2,0-15.2,0-23.9,0c-8.7,0-18.9,0-30.6,0c-11.7,0-26.4,0-44.1,0c-7.4,0-14.1,0.1-20.2,0.2c-6.1,0.2-12,0.6-17.8,1.4
			c-5.8,0.8-11.6,1.9-17.6,3.4c-5.9,1.4-12.3,3.3-19,5.5c8.7-15.4,18.1-28.4,28.4-39c10.3-10.6,22.7-19.3,37.3-26
			c14.6-6.7,32.4-11.6,53.2-14.7c20.9-3,46.6-4.6,77.1-4.6L951.9,351.2z"/>
	</g>
</g>
<g>
	<g>
		<g>
			<path class="st0" d="M3149.8,277L2963,415.3v-51.1l136.1-100.8L2963,162.3v-51.1h2.9l183.9,139.4V277z"/>
		</g>
	</g>
	<g>
		<path class="st0" d="M1233.8,415.3h-2.2L1046.9,277v-26.5l186.8-139.4v51.1l-136.4,101.1l136.4,100.8V415.3z"/>
	</g>
	<g>
		<path class="st1" d="M1530.3,424.4H1503V217.3c0-2.9,1-11.5,2.9-25.7l-53.5,202.1h-5.9L1393,191.6c1.9,14.3,2.9,22.9,2.9,25.7
			v207.1h-27.4v-327h27l53.1,212.7c0.3,1.1,0.6,4.3,0.8,9.4c0-2.1,0.3-5.2,0.8-9.4l53.1-212.7h27V424.4z"/>
		<path class="st1" d="M1800,424.4h-28.8l-11.5-72.7h-65l-11.5,72.7h-28v-0.8l58.3-327h28.6L1800,424.4z M1755.9,325.9l-28.6-177.2
			l-28.8,177.2H1755.9z"/>
		<path class="st1" d="M2064.1,424.4h-30.5l-60.8-175.1l4-5.9h51.8V123h-74.6v301.3h-29v-327h109.5c6.8,0,12.4,2.2,16.7,6.5
			c4.3,4.3,6.5,9.9,6.5,16.7v124.1c0,15.7-10.6,23.6-31.8,23.6c-2.1,0-5.2-0.1-9.2-0.3c-4-0.2-7-0.3-8.8-0.3
			C2026.7,319.7,2045.4,372,2064.1,424.4z"/>
		<path class="st1" d="M2322.7,271.2c0,6.8-2.2,12.4-6.6,16.8c-4.4,4.4-10,6.6-16.8,6.6h-77.1v129.8h-29v-327h106.2
			c6.8,0,12.4,2.2,16.8,6.5c4.4,4.3,6.6,9.9,6.6,16.7V271.2z M2293.6,268.7V123h-71.5v145.6H2293.6z"/>
		<path class="st1" d="M2561.6,424.4h-107.4v-327h106.2V123h-77.1v122h70.2v26.1h-70.2v127.5h78.4V424.4z"/>
		<path class="st1" d="M2831.7,424.4h-30.5l-60.8-175.1l4-5.9h51.8V123h-74.6v301.3h-29v-327h109.5c6.8,0,12.4,2.2,16.7,6.5
			c4.3,4.3,6.5,9.9,6.5,16.7v124.1c0,15.7-10.6,23.6-31.8,23.6c-2.1,0-5.2-0.1-9.2-0.3c-4-0.2-7-0.3-8.8-0.3
			C2794.3,319.7,2813.1,372,2831.7,424.4z"/>
	</g>
</g>
<g>
</g>
<g>
</g>
<g>
</g>
<g>
</g>
<g>
</g>
<g>
</g>
<g>
</g>
<g>
</g>
<g>
</g>
<g>
</g>
<g>
</g>
<g>
</g>
<g>
</g>
<g>
</g>
<g>
</g>
</svg>
